<?xml version="1.0" encoding="UTF-8" standalone="no"?>
<!DOCTYPE svg PUBLIC "-//W3C//DTD SVG 1.1//EN" "http://www.w3.org/Graphics/SVG/1.1/DTD/svg11.dtd">
<svg xmlns="http://www.w3.org/2000/svg" xmlns:xlink="http://www.w3.org/1999/xlink" version="1.1" width="841.89pt" height="538.58pt" viewBox="0 0 841.89 538.58">
<g enable-background="new">
<g id="Layer-1" data-name="Layer 1">
<clipPath id="cp0">
<path transform="matrix(1,0,0,-1,0,538.58)" d="M 0 538.58 L 841.89 538.58 L 841.89 0 L 0 0 Z "/>
</clipPath>
<g clip-path="url(#cp0)">
<path transform="matrix(1,0,0,-1,57.9702,63.26761)" d="M 0 0 L 725.95 0 C 733.335 0 739.344 -6.009 739.344 -13.395 L 739.344 -344.057 L -13.395 -344.057 L -13.395 -13.395 C -13.395 -6.009 -7.386 0 0 0 M 725.95 13.932 L 0 13.932 C -15.068 13.932 -27.327 1.673 -27.327 -13.395 L -27.327 -398.65 C -27.327 -413.719 -15.068 -425.978 0 -425.978 L 725.95 -425.978 C 741.018 -425.978 753.277 -413.719 753.277 -398.65 L 753.277 -13.395 C 753.277 1.673 741.018 13.932 725.95 13.932 " fill="#ee3524"/>
</g>
<text fill="#ffffff" xml:space="preserve" transform="matrix(1 0 -0 1 0 538.58)" font-size="52" font-family="HandelGothicBT"><tspan y="-73.1494" x="191.8633 229.19931 262.84333 296.98133 311.79093 339.4393 354.99769 387.81489 418.96287 452.78889 492.8809 513.0049 545.4529 572.65927 611.056">AFFILIATED CLUB</tspan></text>
<clipPath id="cp1">
<path transform="matrix(1,0,0,-1,0,538.58)" d="M 0 538.58 L 841.89 538.58 L 841.89 0 L 0 0 Z "/>
</clipPath>
<g clip-path="url(#cp1)">
<path transform="matrix(1,0,0,-1,783.9199,405.7705)" d="M 0 0 L -725.949 0 C -734.898 0 -742.179 7.28 -742.179 16.229 L -742.179 329.108 C -742.179 338.057 -734.898 345.337 -725.949 345.337 L 0 345.337 C 8.948 345.337 16.229 338.057 16.229 329.108 L 16.229 16.229 C 16.229 7.28 8.948 0 0 0 " fill="#ffffff"/>
<path transform="matrix(1,0,0,-1,797.3145,389.54103)" d="M 0 0 C 0 -7.386 -6.009 -13.395 -13.395 -13.395 L -739.344 -13.395 C -746.73 -13.395 -752.739 -7.386 -752.739 0 L -752.739 312.879 C -752.739 320.265 -746.73 326.273 -739.344 326.273 L -13.395 326.273 C -6.009 326.273 0 320.265 0 312.879 Z M -13.395 340.206 L -739.344 340.206 C -754.413 340.206 -766.671 327.947 -766.671 312.878 L -766.671 0 C -766.671 -15.068 -754.413 -27.327 -739.344 -27.327 L -13.395 -27.327 C 1.674 -27.327 13.933 -15.068 13.933 0 L 13.933 312.878 C 13.933 327.947 1.674 340.206 -13.395 340.206 " fill="#ee3524"/>
<path transform="matrix(1,0,0,-1,153.2812,254.41992)" d="M 0 0 C .604 -.302 23.877 -9.117 30.15 -36.319 C 36.418 -63.519 28.434 -80.988 10.623 -86.516 C -7.192 -92.055 -28.708 -73.568 -34.269 -54.939 C -39.831 -36.31 -38.918 -15.62 -26.626 -4.332 C -16.518 4.949 -2.635 .96 -2.207 .762 C -1.777 .569 -.697 .348 0 0 M -21.384 -3.202 C -25.808 -5.404 -35.879 -20.62 -25.013 -50.523 C -14.146 -80.423 1.822 -80.689 7.095 -79.276 C 12.365 -77.862 21.085 -69.785 17.747 -44.523 C 14.411 -19.27 .58 -7.12 .58 -7.12 C -6.88 .34 -15.874 -.431 -20.298 -2.632 Z " fill="#004990"/>
<path transform="matrix(1,0,0,-1,124.0464,90.23682)" d="M 0 0 C 0 0 -.151 -42.564 39.538 -65.735 C 79.223 -88.902 79.072 -96.276 81.271 -100.7 C 81.271 -100.7 87.149 -104.999 85.807 -89.902 C 84.456 -74.806 81.441 -70.412 78.915 -68.45 C 78.915 -68.45 93.144 -77.366 92.771 -90.069 C 92.391 -102.767 90.596 -109.79 84.311 -117.373 C 84.311 -117.373 80.371 -133.468 72.818 -139.874 C 72.818 -139.874 74.194 -132.459 74.124 -130.414 C 74.052 -128.372 72.784 -127.187 71.191 -128.474 C 69.6 -129.755 49.813 -137.403 36.899 -130.9 C 36.899 -130.9 35.603 -128.894 36.742 -126.397 C 37.887 -123.904 42.434 -113.516 46.081 -112.569 C 49.734 -111.623 60.825 -112.875 63.278 -112.788 C 65.731 -112.703 70.606 -111.714 64.685 -106.188 C 58.761 -100.666 53.671 -95.526 42.829 -89.766 C 31.991 -84.006 20.118 -72.143 14.954 -64.958 C 9.792 -57.769 -4.567 -33.309 0 0 " fill="#ee3524"/>
<path transform="matrix(1,0,0,-1,194.8716,125.72122)" d="M 0 0 C 2.268 -.038 9.715 -2.107 8.562 -11.258 C 7.562 -19.206 2.99 -20.191 -.541 -20.172 C -4.649 -20.153 -9.675 -16.4 -9.506 -9.438 C -9.342 -2.474 -2.57 -.375 -2.57 -.375 C -2.57 -.375 -1.475 .024 0 0 " fill="#004990"/>
<path transform="matrix(1,0,0,-1,211.8437,155.10602)" d="M 0 0 L 9.816 -11.525 C 9.816 -11.525 41.793 21.923 38.472 46.769 C 38.472 46.769 15.173 10.762 0 0 " fill="#004990"/>
<path transform="matrix(1,0,0,-1,159.625,230.18073)" d="M 0 0 C 0 0 14.025 -3.193 20.538 -2.145 C 20.538 -2.145 40.635 -23.454 49.855 -33.049 C 56.488 -39.947 60.308 -51.1 57.832 -62.236 C 55.354 -73.373 50.891 -86.215 43.847 -95.461 C 43.847 -95.461 46.562 -79.404 46.321 -72.46 C 46.077 -65.509 46.158 -56.092 37.609 -45.748 C 29.065 -35.412 4.587 -14.167 0 0 " fill="#004990"/>
<path transform="matrix(1,0,0,-1,233.5576,237.83353)" d="M 0 0 C 0 0 22.71 -5.758 25.617 -18.75 C 28.526 -31.738 6.975 -35.771 2.437 -34.704 C -2.102 -33.626 -.158 -30.695 2.295 -30.61 C 4.748 -30.526 17.067 -31.732 16.841 -25.189 C 16.61 -18.654 11.634 -16.778 7.9 -15.276 C 4.161 -13.771 -8.708 -8.485 -11.305 -4.486 C -13.897 -.486 -7.896 3.409 0 0 " fill="#004990"/>
<path transform="matrix(1,0,0,-1,222.5088,309.4424)" d="M 0 0 C .614 8.31 3.261 13.633 4.82 16.437 C 17.157 38.644 44.474 35.717 61.126 16.213 C 77.773 -3.286 81.281 -37.902 71.64 -53.235 C 62.002 -68.573 38.998 -74.928 16.21 -50.387 C 3.57 -36.772 -1.116 -15.077 0 0 M 26.947 -47.103 C 43.675 -63.45 57.621 -59.372 61.563 -42.938 C 65.506 -26.505 59.592 -12.046 57.183 -5.257 C 54.77 1.537 36.128 36.965 14.729 25.016 C -.117 16.726 7.667 -28.261 26.947 -47.103 " fill="#004990"/>
<path transform="matrix(1,0,0,-1,324.3604,282.209)" d="M 0 0 L 0 72.232 L 37.121 72.232 C 45.571 72.232 51.709 71.427 55.633 68.911 C 60.864 65.594 63.78 60.159 63.78 53.421 C 63.78 45.373 60.462 39.938 53.016 36.116 C 60.36 32.995 63.981 27.868 63.981 19.717 C 63.981 6.037 56.137 0 39.738 0 Z M 15.192 42.555 L 37.424 42.555 C 44.166 42.555 47.384 45.069 47.384 50.906 C 47.384 56.739 44.166 59.254 37.424 59.254 L 15.192 59.254 Z M 47.584 21.228 C 47.584 27.262 44.365 29.776 37.625 29.776 L 15.192 29.776 L 15.192 12.773 L 37.625 12.773 C 44.365 12.773 47.584 15.191 47.584 21.228 " fill="#ee3524"/>
<path transform="matrix(1,0,0,-1,436.5811,209.9761)" d="M 0 0 C 17.101 0 25.251 -6.541 25.251 -21.731 C 25.251 -32.896 20.021 -40.041 10.661 -42.051 L 28.671 -72.233 L 11.571 -72.233 L -4.325 -43.861 L -22.231 -43.861 L -22.231 -72.233 L -37.423 -72.233 L -37.423 0 Z M -22.231 -12.876 L -22.231 -31.086 L -3.62 -31.086 C 5.432 -31.086 9.858 -29.278 9.858 -21.933 C 9.858 -14.486 5.432 -12.876 -3.62 -12.876 Z " fill="#ee3524"/>
<path transform="matrix(1,0,0,-1,0,538.58)" d="M 472.891 328.604 L 488.787 328.604 L 488.787 256.372 L 472.891 256.372 Z " fill="#ee3524"/>
<path transform="matrix(1,0,0,-1,495.25,222.65192)" d="M 0 0 L 0 12.573 L 62.477 12.573 L 62.477 0 L 39.037 0 L 39.037 -59.557 L 23.341 -59.557 L 23.341 0 Z " fill="#ee3524"/>
<path transform="matrix(1,0,0,-1,0,538.58)" d="M 564.305 328.604 L 580.201 328.604 L 580.201 256.372 L 564.305 256.372 Z " fill="#ee3524"/>
<path transform="matrix(1,0,0,-1,617.3369,222.85211)" d="M 0 0 C -7.946 0 -11.669 -2.818 -11.669 -9.458 C -11.669 -14.688 -8.45 -17.306 -2.113 -17.306 L 18.009 -17.306 C 34.106 -17.306 41.049 -22.638 41.049 -37.728 C 41.049 -52.917 32.897 -59.356 15.798 -59.356 L -24.648 -59.356 L -24.648 -46.48 L 13.381 -46.48 C 21.429 -46.48 25.152 -44.568 25.152 -38.329 C 25.152 -31.89 21.732 -29.982 14.389 -29.982 L -3.519 -29.982 C -20.02 -29.982 -27.564 -23.743 -27.564 -9.257 C -27.564 6.438 -19.415 12.876 -2.212 12.876 L 37.526 12.876 L 37.526 0 Z " fill="#ee3524"/>
<path transform="matrix(1,0,0,-1,683.0664,239.25293)" d="M 0 0 L 27.864 0 L 27.864 29.277 L 43.055 29.277 L 43.055 -42.956 L 27.864 -42.956 L 27.864 -12.773 L 0 -12.773 L 0 -42.956 L -15.191 -42.956 L -15.191 29.277 L 0 29.277 Z " fill="#ee3524"/>
<path transform="matrix(1,0,0,-1,340.2295,330.48445)" d="M 0 0 C 0 -15.489 4.714 -20.681 16.925 -20.681 L 40.776 -20.681 L 40.776 -32.7 L 16.251 -32.7 C 7.884 -32.7 1.444 -32.025 -5.29 -26.64 C -12.404 -20.969 -15.869 -11.926 -15.869 .571 C -15.869 25.004 -5.575 36.35 16.635 36.35 L 40.776 36.35 L 40.776 24.518 L 16.925 24.518 C 4.714 24.518 0 17.118 0 0 " fill="#004990"/>
<path transform="matrix(1,0,0,-1,399.9409,294.13383)" d="M 0 0 L 17.019 -26.35 L 34.329 0 L 51.16 0 L 24.521 -38.565 L 24.521 -69.051 L 9.999 -69.051 L 9.999 -38.565 L -16.351 0 Z " fill="#004990"/>
<path transform="matrix(1,0,0,-1,462.9092,330.48445)" d="M 0 0 C 0 -15.489 4.714 -20.681 16.926 -20.681 L 40.777 -20.681 L 40.777 -32.7 L 16.252 -32.7 C 7.886 -32.7 1.444 -32.025 -5.289 -26.64 C -12.403 -20.969 -15.868 -11.926 -15.868 .571 C -15.868 25.004 -5.575 36.35 16.637 36.35 L 40.777 36.35 L 40.777 24.518 L 16.926 24.518 C 4.714 24.518 0 17.118 0 0 " fill="#004990"/>
<path transform="matrix(1,0,0,-1,517.1934,355.9717)" d="M 0 0 C -5.288 5.574 -6.252 11.636 -6.252 20.774 L -6.252 61.838 L 8.269 61.838 L 8.269 23.944 L 8.269 21.252 C 8.269 15.582 8.367 11.447 10.673 8.754 C 13.751 5.098 17.886 4.228 24.04 4.228 L 41.158 4.228 L 41.158 -7.213 L 22.79 -7.213 C 12.788 -7.213 6.155 -6.539 0 0 " fill="#004990"/>
<path transform="matrix(1,0,0,-1,0,538.58)" d="M 564.928 244.446 L 580.123 244.446 L 580.123 175.39499 L 564.928 175.39499 Z " fill="#004990"/>
<path transform="matrix(1,0,0,-1,610.9717,294.13383)" d="M 0 0 L 28.272 -49.622 L 27.598 0 L 42.409 0 L 42.409 -69.051 L 25.582 -69.051 L -4.135 -16.828 L -3.461 -69.051 L -18.366 -69.051 L -18.366 0 Z " fill="#004990"/>
<path transform="matrix(1,0,0,-1,691.79,322.21583)" d="M 0 0 L 34.333 0 L 34.333 -40.968 L 3.078 -40.968 C -5.29 -40.968 -11.923 -40.489 -18.848 -34.907 C -25.962 -29.238 -29.428 -20.194 -29.428 -7.696 C -29.428 16.734 -19.04 28.082 3.078 28.082 L 34.333 28.082 L 34.333 16.155 L 3.078 16.155 C -8.559 16.155 -13.269 8.747 -13.269 -7.024 C -13.269 -21.737 -8.653 -28.462 3.078 -28.462 L 19.427 -28.462 L 19.427 -12.216 L 0 -12.216 Z " fill="#004990"/>
<path transform="matrix(1,0,0,-1,455.8721,93.0762)" d="M 0 0 L -87.674 0 L -131.512 -43.837 L -87.674 -87.675 L 0 -87.675 L 43.838 -43.837 Z " fill="#ffffff"/>
<path transform="matrix(1,0,0,-1,499.709,136.9136)" d="M 0 0 L -43.837 43.837 L -43.837 -43.837 Z " fill="#ee3524"/>
<path transform="matrix(1,0,0,-1,412.0347,136.9136)" d="M 0 0 L 43.837 43.837 L -43.837 43.837 Z " fill="#ee3524"/>
<path transform="matrix(1,0,0,-1,324.3604,136.9136)" d="M 0 0 L 43.837 -43.837 L 43.837 43.837 Z " fill="#ee3524"/>
<path transform="matrix(1,0,0,-1,412.0347,136.9136)" d="M 0 0 L -43.837 -43.837 L 43.837 -43.837 Z " fill="#ee3524"/>
<path transform="matrix(1,0,0,-1,538.1895,139.58011)" d="M 0 0 L -15.895 0 L -15.895 -15.691 L -23.867 -15.691 L -23.867 21.023 L -15.895 21.023 L -15.895 5.993 L 0 5.993 L 0 21.023 L 7.974 21.023 L 7.974 -15.691 L 0 -15.691 Z " fill="#231f20"/>
<path transform="matrix(1,0,0,-1,565.252,155.93173)" d="M 0 0 C -7.922 0 -14.422 3.148 -14.574 11.934 L -6.602 11.934 C -6.5 8.023 -4.215 5.687 .153 5.687 C 3.403 5.687 7.059 7.312 7.059 10.969 C 7.059 13.813 4.571 14.727 .457 15.895 L -2.184 16.657 C -7.972 18.332 -13.711 20.567 -13.711 27.168 C -13.711 35.344 -6.093 38.086 .864 38.086 C 8.023 38.086 14.168 35.598 14.22 27.473 L 6.246 27.473 C 5.941 30.825 4.013 32.754 .254 32.754 C -2.691 32.754 -5.636 31.18 -5.636 27.93 C -5.636 25.239 -3.198 24.426 1.98 22.801 L 5.028 21.836 C 11.325 19.855 15.285 17.673 15.285 11.579 C 15.285 3.2 7.211 0 0 0 " fill="#231f20"/>
<path transform="matrix(1,0,0,-1,598.5859,149.78711)" d="M 0 0 C 3.707 0 7.364 .864 7.364 5.332 C 7.364 9.7 4.215 10.716 .457 10.716 L -5.84 10.716 L -5.84 0 Z M -.761 15.946 C 2.742 15.946 6.297 16.657 6.297 20.923 C 6.297 24.73 2.945 25.747 -.254 25.747 L -5.84 25.747 L -5.84 15.946 Z M -13.559 31.23 L -.812 31.23 C 3.199 31.23 4.824 31.129 6.398 30.773 C 10.867 29.759 14.22 26.864 14.22 21.937 C 14.22 17.216 11.223 14.778 6.907 13.661 C 11.884 12.747 15.539 10.207 15.539 4.773 C 15.539 -3.554 7.312 -5.484 .864 -5.484 L -13.559 -5.484 Z " fill="#231f20"/>
<path transform="matrix(1,0,0,-1,634.9014,155.93173)" d="M 0 0 C -11.832 0 -17.165 7.567 -17.165 18.739 C -17.165 29.809 -11.273 38.086 .406 38.086 C 7.719 38.086 14.828 34.836 15.031 26.509 L 6.805 26.509 C 6.398 30.165 3.961 32.094 .406 32.094 C -6.754 32.094 -8.938 24.375 -8.938 18.485 C -8.938 12.645 -6.754 5.84 .151 5.84 C 3.757 5.84 6.398 7.77 6.957 11.477 L 15.234 11.477 C 14.32 3.148 7.617 0 0 0 " fill="#231f20"/>
<path transform="matrix(1,0,0,-1,678.8145,155.83011)" d="M 0 0 C -9.04 0 -14.066 5.079 -14.066 14.066 L -14.066 37.274 L -10.614 37.274 L -10.614 15.234 C -10.614 12.391 -10.563 9.446 -8.938 7.008 C -6.958 4.062 -3.403 2.793 0 2.793 C 4.011 2.793 7.921 4.52 9.648 8.329 C 10.563 10.411 10.612 13 10.612 15.234 L 10.612 37.274 L 14.066 37.274 L 14.066 14.066 C 14.066 5.332 8.784 0 0 0 " fill="#231f20"/>
<path transform="matrix(1,0,0,-1,703.626,135.36383)" d="M 0 0 L 16.353 16.808 L 20.77 16.808 L 3.961 .253 L 22.497 -19.908 L 17.978 -19.908 Z M -3.504 16.808 L -.20299983 16.808 L -.20299983 -19.907 L -3.504 -19.907 Z " fill="#231f20"/>
</g>
</g>
</g>
</svg>
